HIERARCHY
ROOT Hips
{
	OFFSET -0.001795 -0.223333 0.028219
	CHANNELS 6 Xposition Yposition Zposition Zrotation Yrotation Xrotation 
	JOINT LeftUpLeg
	{
		OFFSET 0.069520 -0.091406 -0.006815
		CHANNELS 3 Zrotation Yrotation Xrotation
		JOINT LeftLeg
		{
			OFFSET 0.034277 -0.375199 -0.004496
			CHANNELS 3 Zrotation Yrotation Xrotation
			JOINT LeftFoot
			{
				OFFSET -0.013596 -0.397961 -0.043693
				CHANNELS 3 Zrotation Yrotation Xrotation
				JOINT LeftToe
				{
					OFFSET 0.026358 -0.055791 0.119288
					CHANNELS 3 Zrotation Yrotation Xrotation
					End Site
					{
						OFFSET 0.000000 0.000000 0.000000
					}
				}
			}
		}
	}
	JOINT RightUpLeg
	{
		OFFSET -0.067670 -0.090522 -0.004320
		CHANNELS 3 Zrotation Yrotation Xrotation
		JOINT RightLeg
		{
			OFFSET -0.038290 -0.382569 -0.008850
			CHANNELS 3 Zrotation Yrotation Xrotation
			JOINT RightFoot
			{
				OFFSET 0.015774 -0.398415 -0.042312
				CHANNELS 3 Zrotation Yrotation Xrotation
				JOINT RightToe
				{
					OFFSET -0.025372 -0.048144 0.123348
					CHANNELS 3 Zrotation Yrotation Xrotation
					End Site
					{
						OFFSET 0.000000 0.000000 0.000000
					}
				}
			}
		}
	}
	JOINT Spine
	{
		OFFSET -0.002533 0.108963 -0.026696
		CHANNELS 3 Zrotation Yrotation Xrotation
		JOINT Spine1
		{
			OFFSET 0.005487 0.135180 0.001092
			CHANNELS 3 Zrotation Yrotation Xrotation
			JOINT Spine2
			{
				OFFSET 0.001457 0.052922 0.025425
				CHANNELS 3 Zrotation Yrotation Xrotation
				JOINT Neck
				{
					OFFSET -0.002778 0.213870 -0.042857
					CHANNELS 3 Zrotation Yrotation Xrotation
					JOINT Head
					{
						OFFSET 0.005152 0.064970 0.051349
						CHANNELS 3 Zrotation Yrotation Xrotation
						End Site
						{
							OFFSET 0.000000 0.000000 0.000000
						}
					}
				}
				JOINT LeftShoulder
				{
					OFFSET 0.078845 0.121749 -0.034090
					CHANNELS 3 Zrotation Yrotation Xrotation
					JOINT LeftArm
					{
						OFFSET 0.090977 0.030469 -0.008868
						CHANNELS 3 Zrotation Yrotation Xrotation
						JOINT LeftForeArm
						{
							OFFSET 0.259612 -0.012772 -0.027456
							CHANNELS 3 Zrotation Yrotation Xrotation
							JOINT LeftHand
							{
								OFFSET 0.249234 0.008986 -0.001171
								CHANNELS 3 Zrotation Yrotation Xrotation
								End Site
								{
									OFFSET 0.000000 0.000000 0.000000
								}
							}
						}
					}
				}
				JOINT RightShoulder
				{
					OFFSET -0.081759 0.118833 -0.038615
					CHANNELS 3 Zrotation Yrotation Xrotation
					JOINT RightArm
					{
						OFFSET -0.096012 0.032551 -0.009143
						CHANNELS 3 Zrotation Yrotation Xrotation
						JOINT RightForeArm
						{
							OFFSET -0.253742 -0.013329 -0.021401
							CHANNELS 3 Zrotation Yrotation Xrotation
							JOINT RightHand
							{
								OFFSET -0.255298 0.007772 -0.005559
								CHANNELS 3 Zrotation Yrotation Xrotation
								End Site
								{
									OFFSET 0.000000 0.000000 0.000000
								}
							}
						}
					}
				}
			}
		}
	}
}
MOTION
Frames: 9
Frame Time: 0.050000
0.000000 0.922152 0.000000 -1.043831 9.982383 4.959884 7.070231 -1.034805 -17.612026 -5.701368 0.224351 24.512692 5.535608 11.441645 -0.173504 0.000000 0.000000 0.000000 -1.076428 1.769772 -24.690653 -0.713151 0.490526 28.136782 1.567666 4.930861 -1.809831 0.000000 0.000000 0.000000 1.292194 -1.700618 22.325969 0.847338 -1.073068 8.206755 -1.281335 -3.817923 7.506511 0.277676 0.458114 -8.662358 0.000000 0.000000 0.000000 1.383787 -37.008602 12.804692 -21.523374 -46.728279 4.334008 23.555037 -10.388118 -1.665563 0.000000 0.000000 0.000000 4.852241 33.638156 13.499203 45.385638 54.855849 17.412572 -26.082106 18.065688 -2.932926 0.000000 0.000000 0.000000 
0.000161 0.922427 -0.005711 -1.566439 9.978355 5.388512 7.707088 -1.063420 -19.225455 -6.897290 0.570151 25.856697 5.801372 12.213629 0.482223 0.000000 0.000000 0.000000 -0.515507 1.950235 -25.869394 -0.623394 0.461320 28.673461 2.094660 5.806175 -0.831944 0.000000 0.000000 0.000000 1.618565 -1.749289 21.972823 0.589001 -0.808770 6.873646 -1.081701 -4.746651 10.496042 -1.719906 1.752614 -7.617158 0.000000 0.000000 0.000000 1.096896 -36.177540 12.615507 -20.886803 -48.563238 4.326958 21.448598 -7.771870 -1.066712 0.000000 0.000000 0.000000 3.897385 33.000833 12.843210 46.997484 57.709647 19.309688 -25.906963 16.217126 -2.528552 0.000000 0.000000 0.000000 
0.000261 0.922092 -0.011097 -1.823828 10.152577 5.005033 7.865829 -1.107040 -20.273120 -6.341475 0.338719 27.165418 4.495541 9.578897 0.339122 0.000000 0.000000 0.000000 -0.899606 1.877122 -26.354208 -0.467696 0.351497 30.591230 2.276387 5.733006 0.157022 0.000000 0.000000 0.000000 2.989018 -2.096350 22.220855 0.371070 -0.696646 6.902289 -1.840899 -5.278039 11.753481 -2.289468 2.166019 -8.170947 0.000000 0.000000 0.000000 1.318095 -37.557427 13.043492 -20.249781 -47.940506 3.980802 18.961462 -6.424642 -0.740331 0.000000 0.000000 0.000000 3.054698 32.642863 12.400195 45.047500 58.342140 18.437829 -24.783175 16.721354 -2.511480 0.000000 0.000000 0.000000 
-0.000084 0.923364 -0.015862 -2.125973 9.440307 4.583256 8.147167 -1.032804 -20.247256 -6.539938 0.444825 28.149208 4.806728 10.104025 0.044839 0.000000 0.000000 0.000000 -0.334306 2.010294 -25.712214 -1.495375 0.841719 30.212728 3.371504 8.465216 0.260034 0.000000 0.000000 0.000000 2.782170 -2.048535 22.525637 -0.174011 -0.392526 7.159981 -1.904169 -6.234219 12.541056 -4.953340 4.027389 -8.078775 0.000000 0.000000 0.000000 2.750319 -36.607051 12.307027 -21.409460 -47.221298 4.383969 18.259737 -6.702006 -0.729667 0.000000 0.000000 0.000000 0.852328 32.484171 11.618009 47.753304 60.245465 20.618462 -25.260218 16.508360 -2.557173 0.000000 0.000000 0.000000 
-0.000924 0.924045 -0.019711 -1.934780 9.363376 4.155130 7.645154 -1.084907 -20.232743 -5.878705 0.215604 28.318437 4.712343 10.335384 1.358442 0.000000 0.000000 0.000000 -0.415247 1.972095 -25.270633 -2.003100 1.048509 30.025846 3.483799 8.012324 1.481314 0.000000 0.000000 0.000000 2.191993 -1.958800 23.049844 -0.108570 -0.450200 7.499023 -2.416293 -7.035650 12.761953 -5.910061 4.674582 -8.240436 0.000000 0.000000 0.000000 1.941102 -37.169750 12.796876 -20.770739 -45.437374 3.917940 18.408983 -7.354064 -0.815015 0.000000 0.000000 0.000000 0.397220 32.370463 11.367800 47.502265 59.339925 19.814657 -25.197439 19.287602 -3.119256 0.000000 0.000000 0.000000 
-0.002890 0.924912 -0.023043 -2.022285 9.698417 3.630292 7.938131 -1.023746 -19.669678 -5.585657 0.075262 28.399154 3.981162 8.941084 1.530066 0.000000 0.000000 0.000000 -0.200404 1.973675 -24.824337 -2.346381 1.146619 29.659405 4.037387 9.357012 1.502571 0.000000 0.000000 0.000000 1.888696 -1.949036 23.488174 -0.160889 -0.420801 7.403615 -3.027933 -7.563280 13.278546 -7.241552 5.694408 -7.246892 0.000000 0.000000 0.000000 2.537022 -37.171528 12.578459 -20.184547 -44.563521 3.616211 18.917076 -7.363146 -0.841957 0.000000 0.000000 0.000000 -0.493037 31.505487 10.805160 49.098894 57.974028 19.847039 -25.668846 23.817956 -4.114895 0.000000 0.000000 0.000000 
-0.005813 0.924705 -0.026318 -2.091352 10.275436 3.280765 8.113809 -1.042916 -20.039691 -5.038617 -0.182867 28.640172 3.595433 8.445218 2.213606 0.000000 0.000000 0.000000 -0.181713 1.938632 -24.700110 -2.500302 1.146619 29.769744 3.870784 8.839626 1.667284 0.000000 0.000000 0.000000 1.041624 -1.807972 23.759339 -0.168087 -0.410606 7.088353 -3.884776 -8.485190 13.817249 -8.492780 6.596797 -7.619869 0.000000 0.000000 0.000000 2.152366 -36.733538 12.547497 -17.669953 -42.827755 2.608503 20.524721 -7.143297 -0.890074 0.000000 0.000000 0.000000 0.145629 31.122574 10.739460 50.091300 55.734265 19.029162 -26.912684 29.085559 -5.526594 0.000000 0.000000 0.000000 
-0.009469 0.924366 -0.029923 -2.699940 10.047425 2.830019 8.841081 -0.953966 -20.401082 -4.764341 -0.263932 28.814350 3.275388 7.963782 2.600013 0.000000 0.000000 0.000000 0.468920 2.090457 -24.778504 -2.412165 1.136822 30.521594 3.676247 8.145610 2.034063 0.000000 0.000000 0.000000 0.401373 -1.746929 24.768861 -0.521977 -0.181537 6.739637 -4.723369 -8.703246 13.905094 -8.530446 6.723885 -6.117969 0.000000 0.000000 0.000000 3.497680 -35.924687 11.810327 -14.438543 -41.112990 1.545959 22.052149 -7.225160 -0.978482 0.000000 0.000000 0.000000 0.874635 29.578574 10.295370 52.377754 53.689965 19.010121 -27.102404 35.715475 -7.083499 0.000000 0.000000 0.000000 
-0.013033 0.923903 -0.033433 -3.139064 10.136337 2.908338 9.448527 -0.910483 -20.938650 -4.696022 -0.301748 28.932687 3.246859 7.898554 2.546517 0.000000 0.000000 0.000000 1.115504 2.251233 -25.310829 -2.438258 1.137203 30.969117 3.546545 7.898132 1.914472 0.000000 0.000000 0.000000 -0.300628 -1.623747 25.142637 -0.589334 -0.076682 5.689129 -5.477768 -8.686670 14.576573 -9.225241 7.304995 -6.029951 0.000000 0.000000 0.000000 4.268944 -35.469815 11.371065 -10.728390 -40.134694 0.468637 23.576898 -5.708728 -0.803311 0.000000 0.000000 0.000000 1.534817 28.393683 9.999536 53.788620 51.491804 18.451803 -27.399670 41.208604 -8.433727 0.000000 0.000000 0.000000 
